<?xml version="1.0" encoding="UTF-8"?>
<svg id="Layer_1" data-name="Layer 1" xmlns="http://www.w3.org/2000/svg" viewBox="0 0 1366 365.71">
  <defs>
    <style>
      .cls-1 {
        fill: #fff;
      }
    </style>
  </defs>
  <path class="cls-1" d="M130.62,68.22h0c9.76,0,17.67,7.91,17.67,17.67v144.54c0,7.82,2.8,14.53,8.4,20.13,5.6,5.5,12.31,8.25,20.13,8.25v.14h52.94c9.72,0,17.6,7.88,17.6,17.6h0c0,9.72-7.88,17.6-17.6,17.6h-52.94v.14c-17.57,0-32.64-6.23-45.19-18.68-12.46-12.55-18.68-27.61-18.68-45.19V85.89c0-9.76,7.91-17.67,17.67-17.67Z"/>
  <path class="cls-1" d="M634.02,155.85c11.01-11.01,23.17-17.62,36.5-19.84,12.75-2.12,24.91-.15,36.5,5.94,11.68,6.08,21,15.4,27.95,27.95,7.43,13.42,11.15,28.92,11.15,46.49v60.25c0,9.76-7.91,17.67-17.67,17.67h-.14c-9.76,0-17.67-7.91-17.67-17.67v-60.25c0-12.84-4.3-23.75-12.89-32.73-8.5-8.79-18.68-13.18-30.56-13.18-7.24,0-14,1.74-20.28,5.21-4.92,2.7-9.22,6.32-12.89,10.86v90.09c0,9.76-7.91,17.67-17.67,17.67h0c-9.76,0-17.67-7.91-17.67-17.67v-120.79c0-9.6,7.78-17.38,17.38-17.38h.58c9.6,0,17.38,7.78,17.38,17.38h0Z"/>
  <path class="cls-1" d="M773.64,154.69h0c0-8.96,7.26-16.22,16.22-16.22h95.45c7.53,0,12.89,3.48,16.08,10.43,3.09,6.86,2.17,13.13-2.75,18.83l-80.09,94h68.22c8.96,0,16.22,7.26,16.22,16.22v.14c0,8.96-7.26,16.22-16.22,16.22h-100.37c-3.86,0-7.39-1.16-10.57-3.48-3.86-2.99-6.18-6.85-6.95-11.59-.68-4.83.43-9.22,3.33-13.18l80.96-95.16h-63.29c-8.96,0-16.22-7.26-16.22-16.22Z"/>
  <path class="cls-1" d="M1052.59,138.46h12.6c6.32,0,11.44,5.12,11.44,11.44v132.96c0,6.32-5.12,11.44-11.44,11.44h-12.6c-6.32,0-11.44-5.12-11.44-11.44h0c-12.84,9.75-27.04,14.63-42.58,14.63-19.79,0-36.79-7.19-50.98-21.58-15.16-15.45-22.74-35.29-22.74-59.53s7.53-43.93,22.59-59.38c14.19-14.48,31.19-21.73,50.98-21.73,15.55,0,29.79,4.88,42.73,14.63h0c0-6.32,5.12-11.44,11.44-11.44ZM1041.15,184.23c-8.59-10.23-19.51-15.4-32.73-15.5-12.55-.09-23.61,4.2-33.17,12.89-10.04,9.27-15.06,20.86-15.06,34.76s5.02,25.35,15.06,34.62c9.46,8.79,20.47,13.13,33.02,13.03,13.23,0,24.19-5.16,32.88-15.5v-64.31Z"/>
  <path class="cls-1" d="M1140.94,155.85c11.01-11.01,23.17-17.62,36.5-19.84,12.75-2.12,24.91-.15,36.5,5.94,11.68,6.08,21,15.4,27.95,27.95,7.43,13.42,11.15,28.92,11.15,46.49v60.25c0,9.76-7.91,17.67-17.67,17.67h-.14c-9.76,0-17.67-7.91-17.67-17.67v-60.25c0-10.23-2.75-19.26-8.25-27.08-5.12-7.34-11.83-12.65-20.13-15.93-8.31-3.19-16.66-3.77-25.06-1.74-9.08,2.13-16.8,7.1-23.17,14.92v90.09c0,9.76-7.91,17.67-17.67,17.67h0c-9.76,0-17.67-7.91-17.67-17.67V85.89c0-9.76,7.91-17.67,17.67-17.67h0c9.76,0,17.67,7.91,17.67,17.67v69.96Z"/>
  <path class="cls-1" d="M501.92,136.13l-8.78-42.57h-146.54l-10.54,42.9h-12.79c-32.11,0-58.13,26.03-58.13,58.13v98.92h74.4c7.76,0,14.05-6.29,14.05-14.05h0c0-7.76-6.29-14.05-14.05-14.05h-46.3v-70.82c0-16.59,13.45-30.03,30.03-30.03h34.83l10.54-42.9h101.61l8.78,42.57h65.29v71.16c0,16.59-13.45,30.03-30.03,30.03h-100.36c-7.73,0-15.14-3.26-21.22-7.86-5.81-4.39-11.05-10.27-14.23-16.87-1.21-2.51-2.16-5.15-2.81-7.86-3.27-13.59,1.2-27.82,11.02-37.63,6.53-6.53,15-10.62,25.41-12.27,11.9-1.9,21.16.83,27.77,8.18l-33.35,29.23c-5.42,4.75-5.88,13.02-1.03,18.34h0c4.72,5.18,12.71,5.62,17.98,1.01l43.3-37.92c3.39-2.73,5.5-6.03,6.32-9.92.91-4.05.12-7.64-2.36-10.79-6.61-8.18-14.71-14.59-24.3-19.22-9.51-4.54-19.51-6.82-30-6.82-19.17,0-35.58,6.78-49.22,20.33-13.56,13.56-20.33,29.96-20.33,49.22s6.78,35.58,20.33,49.22c13.64,13.55,29.99,19.74,49.16,19.74h.28s97.63-.01,97.63-.01c32.11,0,58.13-26.03,58.13-58.13v-99.26h-70.5Z"/>
</svg>